Coordinates
version=1
nRows=19
nColumns=34
inDegrees=no

Units are S.I. units (second, meters, Newtons, ...)
If the header above contains a line with 'inDegrees', this indicates whether rotational values are in degrees (yes) or radians (no).

endheader
time	pelvis_tilt	pelvis_list	pelvis_rotation	pelvis_tx	pelvis_ty	pelvis_tz	hip_flexion_r	hip_adduction_r	hip_rotation_r	knee_angle_r	ankle_angle_r	subtalar_angle_r	mtp_angle_r	hip_flexion_l	hip_adduction_l	hip_rotation_l	knee_angle_l	ankle_angle_l	subtalar_angle_l	mtp_angle_l	lumbar_extension	lumbar_bending	lumbar_rotation	arm_flex_r	arm_add_r	arm_rot_r	elbow_flex_r	pro_sup_r	arm_flex_l	arm_add_l	arm_rot_l	elbow_flex_l	pro_sup_l
0.44	0.186031	-0.0813468	0.0476023	0.347222	0.9159	-0.208969	-0.32879	0.16682	-0.101812	0.104342	0.319435	0.162547	-0.135709	0.39757	-0.124428	-0.104354	0.640069	0.150252	-0.0324736	-0.135783	-0.44458	0.056549	0.123196	0.294868	-0.255965	0.070388	0.743026	1.17706	0.0344616	-0.204765	0.241975	0.407148	1.01394
0.45	0.183982	-0.0770085	0.04234	0.360256	0.913911	-0.208942	-0.344399	0.159147	-0.114285	0.103917	0.335989	0.190885	-0.135698	0.392355	-0.115309	-0.122362	0.562218	0.169607	-0.00860563	-0.135772	-0.444999	0.0490883	0.129046	0.302244	-0.259727	0.0753872	0.755852	1.18719	0.0252206	-0.205086	0.235509	0.395256	1.01255
0.46	0.182342	-0.071933	0.036677	0.373378	0.911802	-0.208989	-0.358576	0.149644	-0.130261	0.107063	0.353521	0.222233	-0.135688	0.38447	-0.105156	-0.141838	0.483497	0.191038	0.0197342	-0.135761	-0.44588	0.0409223	0.134628	0.309616	-0.263226	0.0802523	0.767036	1.19675	0.0171291	-0.205308	0.228436	0.382206	1.01159
0.47	0.181242	-0.066128	0.0305183	0.386623	0.909618	-0.2091	-0.371531	0.13824	-0.149241	0.113699	0.37168	0.256037	-0.135677	0.374285	-0.0939601	-0.161985	0.405854	0.214159	0.051936	-0.13575	-0.447285	0.0320081	0.139977	0.316911	-0.266404	0.0849827	0.776526	1.20551	0.0101229	-0.205456	0.220768	0.368114	1.01128
0.48	0.180784	-0.0596642	0.0237876	0.40003	0.907398	-0.209263	-0.383541	0.124991	-0.170311	0.123557	0.389973	0.291279	-0.135667	0.362331	-0.0818748	-0.181877	0.331602	0.238394	0.0868606	-0.135739	-0.449212	0.0223665	0.145138	0.324016	-0.269216	0.0896346	0.78429	1.21329	0.00408976	-0.205555	0.212507	0.353141	1.01179
0.49	0.18102	-0.0526702	0.0164446	0.413639	0.905177	-0.209464	-0.394914	0.110097	-0.192225	0.136205	0.4078	0.326553	-0.135656	0.349296	-0.0692167	-0.200576	0.263298	0.262997	0.122931	-0.135728	-0.451578	0.0120826	0.150159	0.330767	-0.271618	0.0942808	0.790333	1.22	-0.00112248	-0.205638	0.203651	0.337487	1.01319
0.5	0.18194	-0.0453159	0.0085033	0.427487	0.902981	-0.209695	-0.405949	0.0938874	-0.21355	0.15109	0.4245	0.360215	-0.135646	0.335985	-0.0564356	-0.217267	0.20353	0.287064	0.158295	-0.135716	-0.454218	0.00129518	0.155066	0.336951	-0.273565	0.0989718	0.794698	1.22565	-0.0056918	-0.205747	0.194213	0.321386	1.01549
0.51	0.18347	-0.0377856	4.38683e-05	0.441601	0.90083	-0.209946	-0.416896	0.0767862	-0.232851	0.167602	0.439404	0.390566	-0.135635	0.323236	-0.044043	-0.231355	0.154644	0.309533	0.191019	-0.135705	-0.4569	-0.00982429	0.159847	0.342315	-0.275002	0.103707	0.797468	1.23033	-0.00980303	-0.205933	0.184235	0.305094	1.01865
0.52	0.185495	-0.0302432	-0.00878521	0.456003	0.898738	-0.210215	-0.42793	0.0592509	-0.24889	0.185156	0.451872	0.416055	-0.135625	0.311817	-0.0325118	-0.242507	0.118429	0.329171	0.219261	-0.135694	-0.459361	-0.0211001	0.164436	0.346586	-0.275864	0.108418	0.798761	1.23425	-0.0136279	-0.206257	0.173801	0.288883	1.02255
0.53	0.187878	-0.0228016	-0.0177763	0.47071	0.896712	-0.210498	-0.439131	0.0417057	-0.260786	0.203284	0.461317	0.435448	-0.135614	0.302305	-0.0221716	-0.250623	0.095828	0.344585	0.241383	-0.135683	-0.46135	-0.0323798	0.168704	0.349497	-0.276083	0.112972	0.798722	1.23768	-0.0173074	-0.206776	0.163049	0.273028	1.0271
0.54	0.190492	-0.0154985	-0.0266841	0.48572	0.89479	-0.210818	-0.45047	0.0244843	-0.268115	0.22171	0.467186	0.447928	-0.135604	0.29499	-0.0131362	-0.255756	0.086766	0.354281	0.256004	-0.135672	-0.462672	-0.043552	0.172465	0.350813	-0.275597	0.117179	0.797501	1.24095	-0.0209383	-0.207532	0.152167	0.257793	1.03217
0.55	0.193244	-0.00830578	-0.0352508	0.501035	0.893002	-0.211184	-0.461797	0.0077858	-0.270931	0.240422	0.468925	0.453117	-0.135594	0.289842	-0.00527383	-0.258042	0.0901291	0.356814	0.262065	-0.13566	-0.463218	-0.0545544	0.175496	0.35036	-0.274357	0.12082	0.795241	1.24433	-0.0245649	-0.208544	0.141383	0.243428	1.03766
0.56	0.19609	-0.00114095	-0.0432369	0.516644	0.891371	-0.211609	-0.472823	-0.00833334	-0.269697	0.259706	0.465925	0.451013	-0.135583	0.286536	0.00175074	-0.257678	0.103946	0.351023	0.258914	-0.135649	-0.462986	-0.0653664	0.177563	0.348047	-0.272333	0.123667	0.792054	1.24807	-0.0281757	-0.209797	0.130952	0.230165	1.04343
0.57	0.199025	0.00610314	-0.0504502	0.532518	0.88992	-0.212115	-0.483109	-0.0239405	-0.265157	0.280149	0.457462	0.44187	-0.135573	0.284546	0.00838531	-0.254953	0.125723	0.336325	0.24645	-0.135638	-0.462071	-0.0759931	0.178455	0.343876	-0.269523	0.125517	0.788012	1.25231	-0.0317058	-0.211242	0.121137	0.21821	1.04934
0.58	0.202068	0.0135251	-0.0567684	0.548618	0.888685	-0.212721	-0.492059	-0.0391895	-0.25817	0.302609	0.442682	0.426067	-0.135562	0.283272	0.0150753	-0.250307	0.152848	0.312984	0.225274	-0.135627	-0.46064	-0.0864465	0.178018	0.337948	-0.265944	0.126209	0.783138	1.25704	-0.0350444	-0.212803	0.112186	0.207749	1.05518
0.59	0.205219	0.0211886	-0.0621505	0.564876	0.887684	-0.21344	-0.49892	-0.0542752	-0.249554	0.32813	0.42063	0.403981	-0.135552	0.282162	0.0221618	-0.244351	0.182971	0.282265	0.196757	-0.135616	-0.458898	-0.0967304	0.176174	0.33045	-0.261634	0.125642	0.777413	1.26214	-0.0380467	-0.214385	0.104316	0.198949	1.06071
0.6	0.208436	0.0291115	-0.0666389	0.581225	0.886945	-0.214272	-0.502808	-0.0693919	-0.239953	0.357838	0.390354	0.375916	-0.135542	0.280807	0.0298276	-0.237822	0.214244	0.246393	0.16297	-0.135605	-0.457036	-0.106836	0.172924	0.321641	-0.256642	0.123789	0.770785	1.26733	-0.040546	-0.215894	0.0976917	0.191947	1.06567
0.61	0.21162	0.0372798	-0.0703463	0.597591	0.886494	-0.215211	-0.502753	-0.0847079	-0.229781	0.392805	0.35108	0.3421	-0.135531	0.278985	0.0381042	-0.23147	0.245402	0.208315	0.126443	-0.135594	-0.455187	-0.116751	0.16834	0.311829	-0.251026	0.120693	0.763185	1.27222	-0.0423669	-0.217248	0.0924281	0.186855	1.06979
0.62	0.214617	0.0456753	-0.0734311	0.613896	0.886334	-0.216246	-0.497777	-0.100362	-0.219216	0.433897	0.302455	0.302751	-0.135521	0.276643	0.0469336	-0.225923	0.275676	0.17128	0.089812	-0.135582	-0.4534	-0.126481	0.16253	0.301343	-0.244846	0.11647	0.754553	1.27635	-0.0433369	-0.218393	0.0885924	0.183745	1.07289
